<?xml version="1.0" encoding="UTF-8" standalone="no"?>
<!-- Created with Inkscape (http://www.inkscape.org/) -->

<svg
   xmlns:dc="http://purl.org/dc/elements/1.1/"
   xmlns:cc="http://creativecommons.org/ns#"
   xmlns:rdf="http://www.w3.org/1999/02/22-rdf-syntax-ns#"
   xmlns:svg="http://www.w3.org/2000/svg"
   xmlns="http://www.w3.org/2000/svg"
   xmlns:sodipodi="http://sodipodi.sourceforge.net/DTD/sodipodi-0.dtd"
   xmlns:inkscape="http://www.inkscape.org/namespaces/inkscape"
   width="210mm"
   height="100mm"
   viewBox="0 0 744.09449 354.33071"
   id="svg2"
   version="1.1"
   inkscape:version="0.91 r13725"
   sodipodi:docname="basic connection.svg"
   inkscape:export-filename="C:\Users\Chris\basic connection.png"
   inkscape:export-xdpi="300"
   inkscape:export-ydpi="300">
  <defs
     id="defs4" />
  <sodipodi:namedview
     id="base"
     pagecolor="#ffffff"
     bordercolor="#666666"
     borderopacity="1.0"
     inkscape:pageopacity="0.0"
     inkscape:pageshadow="2"
     inkscape:zoom="0.7"
     inkscape:cx="121.13563"
     inkscape:cy="30.125131"
     inkscape:document-units="mm"
     inkscape:current-layer="layer1"
     showgrid="true"
     inkscape:window-width="1440"
     inkscape:window-height="837"
     inkscape:window-x="-8"
     inkscape:window-y="-8"
     inkscape:window-maximized="1"
     inkscape:object-nodes="true">
    <inkscape:grid
       type="xygrid"
       id="grid4136" />
  </sodipodi:namedview>
  <metadata
     id="metadata7">
    <rdf:RDF>
      <cc:Work
         rdf:about="">
        <dc:format>image/svg+xml</dc:format>
        <dc:type
           rdf:resource="http://purl.org/dc/dcmitype/StillImage" />
        <dc:title />
      </cc:Work>
    </rdf:RDF>
  </metadata>
  <g
     inkscape:label="Layer 1"
     inkscape:groupmode="layer"
     id="layer1"
     transform="translate(0,-698.0315)">
    <path
       style="opacity:1;fill:#999999;fill-opacity:1;stroke:#000000;stroke-width:1.3216604;stroke-linecap:round;stroke-miterlimit:4;stroke-dasharray:none;stroke-dashoffset:0;stroke-opacity:1"
       d="m 393.6805,818.59051 28.34646,0 0,70.86614 -28.34646,0 z"
       id="rect4313"
       inkscape:connector-curvature="0" />
    <path
       style="color:#000000;font-style:normal;font-variant:normal;font-weight:normal;font-stretch:normal;font-size:medium;line-height:normal;font-family:sans-serif;text-indent:0;text-align:start;text-decoration:none;text-decoration-line:none;text-decoration-style:solid;text-decoration-color:#000000;letter-spacing:normal;word-spacing:normal;text-transform:none;direction:ltr;block-progression:tb;writing-mode:lr-tb;baseline-shift:baseline;text-anchor:start;white-space:normal;clip-rule:nonzero;display:inline;overflow:visible;visibility:visible;opacity:1;isolation:auto;mix-blend-mode:normal;color-interpolation:sRGB;color-interpolation-filters:linearRGB;solid-color:#000000;solid-opacity:1;fill:#333333;fill-opacity:1;fill-rule:nonzero;stroke:#000000;stroke-width:1.41732287;stroke-linecap:round;stroke-linejoin:miter;stroke-miterlimit:4;stroke-dasharray:none;stroke-dashoffset:0;stroke-opacity:1;color-rendering:auto;image-rendering:auto;shape-rendering:auto;text-rendering:auto;enable-background:accumulate"
       d="m 402.97579,978.86245 c 0,31.47295 14.67361,47.45935 30.27734,50.58005 7.80187,1.5604 15.60441,0.052 21.66797,-3.8554 6.06356,-3.9077 10.41602,-10.5311 10.41602,-18.377 0,-11.08552 4.06796,-16.05493 10.39453,-19.40429 6.32657,-3.34936 39.21784,-4.40981 47.76902,-4.40981 6.21417,0.0727 6.21417,-9.28557 0,-9.21289 -9.16535,0 -43.34708,0.85704 -52.07957,5.48012 -8.73249,4.62308 -15.29687,13.82925 -15.29687,27.54687 0,4.5557 -2.29138,8.1182 -6.19336,10.6328 -3.90199,2.5146 -9.38556,3.6635 -14.8711,2.5664 -10.97106,-2.1942 -22.87109,-12.7835 -22.87109,-41.54685 0.0727,-6.21417 -9.28556,-6.21417 -9.21289,0 z"
       id="path4223-4"
       inkscape:connector-curvature="0"
       sodipodi:nodetypes="cssssccsssscc" />
    <path
       style="opacity:1;fill:#999999;fill-opacity:1;stroke:#000000;stroke-width:1.53088367;stroke-linecap:round;stroke-miterlimit:4;stroke-dasharray:none;stroke-dashoffset:0;stroke-opacity:1"
       d="m 400.76711,889.45665 14.17323,0 0,99.2126 -14.17323,0 z"
       id="rect4289"
       inkscape:connector-curvature="0"
       sodipodi:nodetypes="ccccc" />
    <path
       style="opacity:1;fill:#ffdd55;fill-opacity:1;stroke:#000000;stroke-width:0.70866144;stroke-linecap:round;stroke-miterlimit:4;stroke-dasharray:none;stroke-dashoffset:0;stroke-opacity:1"
       d="m 429.82786,791.89759 -38.97638,0 0,-24.80314 38.97638,0 0,24.80314"
       id="path4134"
       inkscape:connector-curvature="0" />
    <path
       style="opacity:1;fill:#333333;fill-opacity:1;stroke:#000000;stroke-width:0.70866144;stroke-linecap:round;stroke-miterlimit:4;stroke-dasharray:none;stroke-dashoffset:0;stroke-opacity:1"
       d="m 390.85148,791.89759 -7.08661,0 0,-24.80314 7.08661,0 z"
       id="path4136"
       inkscape:connector-curvature="0" />
    <path
       style="opacity:1;fill:#ffdd55;fill-opacity:1;stroke:#000000;stroke-width:0.70866144;stroke-linecap:round;stroke-miterlimit:4;stroke-dasharray:none;stroke-dashoffset:0;stroke-opacity:1"
       d="m 383.76487,791.89759 -14.17323,0 0,-24.80314 14.17323,0 z"
       id="path4138"
       inkscape:connector-curvature="0" />
    <path
       style="opacity:1;fill:#333333;fill-opacity:1;stroke:#000000;stroke-width:0.70866144;stroke-linecap:round;stroke-miterlimit:4;stroke-dasharray:none;stroke-dashoffset:0;stroke-opacity:1"
       d="m 369.59164,791.89759 -7.08662,0 0,-24.80314 7.08662,0 z"
       id="path4140"
       inkscape:connector-curvature="0" />
    <path
       style="opacity:1;fill:#ffdd55;fill-opacity:1;stroke:#000000;stroke-width:0.70866144;stroke-linecap:round;stroke-miterlimit:4;stroke-dasharray:none;stroke-dashoffset:0;stroke-opacity:1"
       d="m 362.50502,791.89759 -3.5433,-3.5433 -21.25985,3.5433 -7.08661,-7.08661 0,-10.62992 7.08661,-7.08661 21.25985,3.5433 3.5433,-3.5433"
       id="path4142"
       inkscape:connector-curvature="0" />
    <path
       style="opacity:1;fill:#ffff00;fill-opacity:1;stroke:#000000;stroke-width:0.70866144;stroke-linecap:round;stroke-miterlimit:4;stroke-dasharray:none;stroke-dashoffset:0;stroke-opacity:1"
       d="m 358.96172,788.35429 0,-17.71654"
       id="path4144"
       inkscape:connector-curvature="0" />
    <path
       style="opacity:1;fill:#ffff00;fill-opacity:1;stroke:#000000;stroke-width:0.70866144;stroke-linecap:round;stroke-miterlimit:4;stroke-dasharray:none;stroke-dashoffset:0;stroke-opacity:1"
       d="m 337.70187,791.89759 0,-24.80314"
       id="path4146"
       inkscape:connector-curvature="0" />
    <path
       style="opacity:1;fill:#333333;fill-opacity:1;stroke:#000000;stroke-width:0.70866144;stroke-linecap:round;stroke-miterlimit:4;stroke-dasharray:none;stroke-dashoffset:0;stroke-opacity:1"
       d="m 429.82786,802.52752 0,-46.063 81.49606,0 17.71654,7.08662 0,31.88976 -17.71654,7.08662 z"
       id="path4148"
       inkscape:connector-curvature="0" />
    <path
       style="opacity:1;fill:#333333;fill-opacity:1;stroke:#000000;stroke-width:1.02472281;stroke-linecap:round;stroke-miterlimit:4;stroke-dasharray:none;stroke-dashoffset:0;stroke-opacity:1"
       d="m 529.04046,791.89759 162.99212,0 0,-24.80314 -162.99212,0 z"
       id="path4150"
       inkscape:connector-curvature="0" />
    <path
       inkscape:connector-curvature="0"
       style="opacity:1;fill:#999999;fill-opacity:1;stroke:#000000;stroke-width:0.70866144;stroke-linecap:round;stroke-miterlimit:4;stroke-dasharray:none;stroke-dashoffset:0;stroke-opacity:1"
       d="m 223.38607,800.62293 c -16.73954,1.66829 -32.34464,-8.66352 -37.34529,-24.72556 l -33.19517,3.34549 c 0,0 -39.84584,-6.66801 -14.8124,-5.62969 3.54026,0.14684 204.47597,-20.60784 204.47597,-20.60784 l 0.7106,7.05091 -6.34029,7.7615 -7.7615,-6.34029 -6.34029,7.7615 -7.7615,-6.34029 -6.34029,7.7615 -7.76151,-6.34029 -6.34029,7.7615 -7.76147,-6.34002 -3.17015,3.88075 -3.88075,-3.17014 -24.67816,2.48685 c -1.69652,16.75071 -14.94609,29.99457 -31.69754,31.68385 z"
       id="path4163-5"
       sodipodi:nodetypes="cccsccccccccccccccc" />
    <path
       style="color:#000000;font-style:normal;font-variant:normal;font-weight:normal;font-stretch:normal;font-size:medium;line-height:normal;font-family:sans-serif;text-indent:0;text-align:start;text-decoration:none;text-decoration-line:none;text-decoration-style:solid;text-decoration-color:#000000;letter-spacing:normal;word-spacing:normal;text-transform:none;direction:ltr;block-progression:tb;writing-mode:lr-tb;baseline-shift:baseline;text-anchor:start;white-space:normal;clip-rule:nonzero;display:inline;overflow:visible;visibility:visible;opacity:1;isolation:auto;mix-blend-mode:normal;color-interpolation:sRGB;color-interpolation-filters:linearRGB;solid-color:#000000;solid-opacity:1;fill:#ffffff;fill-opacity:1;fill-rule:nonzero;stroke:#000000;stroke-width:1.41732287;stroke-linecap:round;stroke-linejoin:miter;stroke-miterlimit:4;stroke-dasharray:none;stroke-dashoffset:0;stroke-opacity:1;color-rendering:auto;image-rendering:auto;shape-rendering:auto;text-rendering:auto;enable-background:accumulate"
       d="m 89.670764,794.37831 c -31.4729,0 -47.45933,14.67361 -50.58008,30.27734 -1.56037,7.80187 -0.0522,15.60441 3.85547,21.66797 3.90763,6.06356 10.53106,10.41602 18.37696,10.41602 11.08548,0 16.05493,4.06796 19.40429,10.39453 3.34936,6.32657 4.40981,39.21784 4.40981,47.76902 -0.0727,6.21417 9.285566,6.21417 9.212886,0 0,-9.16535 -0.85704,-43.34708 -5.480116,-52.07957 -4.62308,-8.73249 -13.82921,-15.29687 -27.54687,-15.29687 -4.55569,0 -8.1182,-2.29138 -10.63282,-6.19336 -2.51461,-3.90199 -3.66351,-9.38556 -2.5664,-14.8711 2.19421,-10.97106 12.78356,-22.87109 41.54687,-22.87109 6.214166,0.0727 6.214166,-9.28556 0,-9.21289 z"
       id="path4223"
       inkscape:connector-curvature="0"
       sodipodi:nodetypes="cssssccsssscc" />
    <path
       style="opacity:1;fill:#999999;fill-opacity:1;stroke:#000000;stroke-width:0.70866144;stroke-linecap:round;stroke-miterlimit:4;stroke-dasharray:none;stroke-dashoffset:0;stroke-opacity:1"
       d="m 220.77195,770.63782 c -16.82246,0.0187 -31.3129,11.8632 -34.67774,28.34571 l -82.25195,0 0,-7.08594 -14.171876,0 0,14.17383 255.117186,0 0,-14.17383 -7.08594,7.08594 -7.08594,-7.08594 -7.08789,7.08594 -7.08593,-7.08594 -7.08594,7.08594 -7.08789,-7.08594 -7.08594,7.08594 -7.08594,-7.08594 -7.08789,7.08594 -14.17382,0 -11.34766,0 c -3.36764,-16.49616 -17.87844,-28.34467 -34.71484,-28.34571 z"
       id="path4163"
       inkscape:connector-curvature="0"
       sodipodi:nodetypes="cccccccccccccccccccc" />
    <path
       style="opacity:1;fill:#999999;fill-opacity:1;stroke:#000000;stroke-width:0.70866144;stroke-linecap:round;stroke-miterlimit:4;stroke-dasharray:none;stroke-dashoffset:0;stroke-opacity:1"
       d="m 226.4304,785.88216 c 1e-5,3.91384 -3.17278,7.08662 -7.08661,7.08662 -3.91383,0 -7.08662,-3.17278 -7.08661,-7.08662 0,-3.91382 3.17278,-7.08661 7.08661,-7.08661 3.91383,0 7.08661,3.17279 7.08661,7.08661 z"
       id="path4201"
       inkscape:connector-curvature="0"
       sodipodi:nodetypes="sssss" />
    <path
       style="opacity:1;fill:#999999;fill-opacity:1;stroke:#000000;stroke-width:0.70866144;stroke-linecap:round;stroke-miterlimit:4;stroke-dasharray:none;stroke-dashoffset:0;stroke-opacity:1"
       d="m 222.88748,785.70384 a 3.5433071,3.5433071 0 0 1 -3.54331,3.54331 3.5433071,3.5433071 0 0 1 -3.54331,-3.54331 3.5433071,3.5433071 0 0 1 3.54331,-3.54331 3.5433071,3.5433071 0 0 1 3.54331,3.54331 z"
       id="path4204"
       inkscape:connector-curvature="0" />
    <path
       style="opacity:1;fill:#ffffff;fill-opacity:1;stroke:#000000;stroke-width:1.41732287;stroke-linecap:round;stroke-miterlimit:4;stroke-dasharray:none;stroke-dashoffset:0;stroke-opacity:1"
       d="m 89.670384,919.45665 c 0,49.6063 0,49.6063 0,49.6063"
       id="path4227"
       inkscape:connector-curvature="0" />
    <path
       style="opacity:1;fill:#000000;fill-opacity:1;stroke:#000000;stroke-width:1.41732287;stroke-linecap:round;stroke-miterlimit:4;stroke-dasharray:none;stroke-dashoffset:0;stroke-opacity:1"
       d="m 86.127074,969.06295 7.086606,0 -3.543296,10.62992 z"
       id="path4229"
       inkscape:connector-curvature="0" />
    <g
       id="g4309"
       transform="matrix(0,-1,1,0,198.82112,1293.5005)">
      <path
         inkscape:connector-curvature="0"
         id="path4227-3"
         d="m 315.35434,329.52756 c 0,49.6063 0,49.6063 0,49.6063"
         style="opacity:1;fill:#ffffff;fill-opacity:1;stroke:#000000;stroke-width:1.41732287;stroke-linecap:round;stroke-miterlimit:4;stroke-dasharray:none;stroke-dashoffset:0;stroke-opacity:1" />
      <path
         inkscape:connector-curvature="0"
         id="path4229-0"
         d="m 311.81103,379.13386 7.08661,0 -3.5433,10.62992 z"
         style="opacity:1;fill:#000000;fill-opacity:1;stroke:#000000;stroke-width:1.41732287;stroke-linecap:round;stroke-miterlimit:4;stroke-dasharray:none;stroke-dashoffset:0;stroke-opacity:1" />
    </g>
    <g
       style="font-style:normal;font-variant:normal;font-weight:normal;font-stretch:normal;font-size:17.5px;line-height:125%;font-family:'Sitka Heading';-inkscape-font-specification:'Sitka Heading, Normal';text-align:start;letter-spacing:0px;word-spacing:0px;writing-mode:lr-tb;text-anchor:start;fill:#000000;fill-opacity:1;stroke:none;stroke-width:1px;stroke-linecap:butt;stroke-linejoin:miter;stroke-opacity:1"
       id="text4231-0"
       transform="translate(175.96959,560.64337)">
      <path
         d="m 420.5738,422.13141 1.19778,-0.27222 q 0.14777,-0.0389 0.24111,-0.14778 0.10111,-0.11667 0.10111,-0.28778 l 0,-9.00667 -2.51222,0 q -0.14778,0 -0.22556,0.0778 -0.0778,0.0778 -0.10889,0.20222 l -0.46666,1.70334 -0.60667,0 0,-2.70667 9.34889,0 0,2.70667 -0.61445,0 -0.45889,-1.70334 q -0.0311,-0.13222 -0.10888,-0.20222 -0.0778,-0.0778 -0.21,-0.0778 l -2.54334,0 0,9.00667 q 0,0.17889 0.10111,0.28778 0.10111,0.10889 0.24111,0.14778 l 1.19778,0.27222 0,0.45111 -4.57333,0 0,-0.45111 z"
         id="path4344"
         inkscape:connector-curvature="0" />
      <path
         d="m 431.05025,422.78474 q -0.84778,0 -1.54,-0.28778 -0.69222,-0.28777 -1.18222,-0.82444 -0.49,-0.53667 -0.76222,-1.29889 -0.26445,-0.77 -0.26445,-1.71111 0,-0.87111 0.26445,-1.62556 0.26444,-0.76222 0.75444,-1.32222 0.49778,-0.56778 1.20556,-0.88666 0.70778,-0.32667 1.60222,-0.32667 0.96444,0 1.66444,0.34222 0.70778,0.34222 1.16667,0.91 0.45889,0.56778 0.68445,1.32222 0.23333,0.74667 0.23333,1.55556 0,0.86333 -0.26445,1.62555 -0.26444,0.75445 -0.75444,1.32223 -0.49,0.56 -1.19778,0.88666 -0.70778,0.31889 -1.61,0.31889 z m 0.10889,-0.64555 q 0.64556,0 1.06556,-0.31889 0.42,-0.31889 0.66111,-0.80889 0.24889,-0.49778 0.35,-1.08889 0.10111,-0.59111 0.10111,-1.13556 0,-0.66111 -0.12445,-1.31444 -0.12444,-0.65333 -0.40444,-1.16667 -0.27222,-0.52111 -0.71556,-0.84 -0.44333,-0.32666 -1.07333,-0.32666 -0.42778,0 -0.75444,0.14777 -0.31889,0.14778 -0.56,0.40445 -0.24111,0.24889 -0.40445,0.58333 -0.16333,0.32667 -0.26444,0.7 -0.10111,0.36556 -0.14778,0.75445 -0.0389,0.38889 -0.0389,0.74666 0,0.39667 0.0467,0.82445 0.0467,0.42778 0.15555,0.83222 0.10889,0.40444 0.28,0.77 0.17889,0.36556 0.43556,0.64556 0.25667,0.27222 0.59889,0.43555 0.35,0.15556 0.79333,0.15556 z"
         id="path4346"
         inkscape:connector-curvature="0" />
      <path
         d="m 439.52578,422.13141 0.71556,-0.25667 q 0.14778,-0.0467 0.26444,-0.17111 0.11667,-0.13222 0.17111,-0.27222 l 3.11889,-8.08889 0.93334,-1.81222 0.52888,0 3.85778,9.90889 q 0.0545,0.14777 0.16334,0.27222 0.11666,0.12444 0.25666,0.17111 l 0.73111,0.24889 0,0.45111 -3.92,0 0,-0.45111 1.33778,-0.33445 -1.22889,-3.16555 -3.89666,0 -1.15112,3.13444 1.32223,0.36556 0,0.45111 -3.20445,0 0,-0.45111 z m 6.64222,-4.28556 -1.28333,-3.24333 -0.35778,-1.05 -0.0544,0 -1.61778,4.29333 3.31333,0 z"
         id="path4348"
         inkscape:connector-curvature="0" />
      <path
         d="m 450.49995,422.14696 0.90223,-0.24111 q 0.14777,-0.0389 0.24111,-0.14 0.0933,-0.10889 0.0933,-0.27222 l 0,-5.22667 q 0,-0.20222 -0.11667,-0.33444 -0.10889,-0.14 -0.31889,-0.21 l -0.80888,-0.31889 0,-0.34222 2.54333,-0.49778 0,1.75 0.0311,0 q 0.25667,-0.38111 0.51333,-0.71555 0.26445,-0.33445 0.56,-0.57556 0.29556,-0.24111 0.62223,-0.38111 0.33444,-0.14 0.72333,-0.14 0.21,0 0.38111,0.0233 0.17111,0.0156 0.31889,0.0544 0.14778,0.0389 0.28,0.10111 0.13222,0.0544 0.28,0.14 l 0,1.86666 -0.61445,0 -0.24111,-0.63 q -0.0311,-0.0856 -0.13222,-0.14777 -0.0933,-0.07 -0.21778,-0.11667 -0.12444,-0.0467 -0.26444,-0.07 -0.14,-0.0233 -0.26445,-0.0233 -0.30333,0 -0.56,0.0933 -0.25666,0.0856 -0.49,0.24111 -0.22555,0.14778 -0.43555,0.36556 -0.20222,0.21 -0.38889,0.45889 l 0,4.63555 q 0,0.17111 0.0933,0.28 0.0933,0.10111 0.24111,0.13222 l 1.08112,0.24111 0,0.43556 -4.05223,0 0,-0.43556 z"
         id="path4350"
         inkscape:connector-curvature="0" />
      <path
         d="m 463.09616,421.4003 -0.0389,0 q -0.33445,0.47444 -0.70778,0.74666 -0.36556,0.26445 -0.71556,0.39667 -0.34222,0.13222 -0.64555,0.16333 -0.30334,0.0311 -0.50556,0.0311 -0.73111,0 -1.30666,-0.28778 -0.57556,-0.28778 -0.97223,-0.79334 -0.39666,-0.51333 -0.61444,-1.20555 -0.21,-0.7 -0.21,-1.52445 0,-0.91777 0.25667,-1.71888 0.25666,-0.80889 0.73111,-1.40778 0.47444,-0.59889 1.16666,-0.94889 0.69223,-0.35 1.57111,-0.35 0.35,0 0.63,0.07 0.28778,0.0622 0.52112,0.17111 0.23333,0.10889 0.42,0.24889 0.18666,0.14 0.33444,0.28778 l 0,-0.35 0,-2.60556 q 0,-0.18667 -0.10111,-0.31111 -0.0933,-0.12444 -0.31889,-0.19444 l -0.95667,-0.33445 0,-0.34222 2.77667,-0.42 0,10.34444 q 0,0.19445 0.10111,0.31889 0.10111,0.11667 0.32667,0.18667 l 0.79333,0.28778 0,0.34222 -2.42667,0.53667 -0.10888,0 0,-1.33778 z m -0.0856,-5.66222 q -0.14,-0.11667 -0.37333,-0.20223 -0.22556,-0.0855 -0.47445,-0.14 -0.24111,-0.0622 -0.47444,-0.0856 -0.23334,-0.0311 -0.38889,-0.0311 -0.62222,0 -1.08111,0.24889 -0.45111,0.24888 -0.75445,0.67666 -0.30333,0.42 -0.45111,0.98 -0.14778,0.55222 -0.14778,1.17445 0,0.73889 0.13223,1.36111 0.14,0.62222 0.43555,1.07333 0.29556,0.45111 0.74667,0.70778 0.45111,0.24889 1.08111,0.24889 0.18667,0 0.42778,-0.0389 0.24111,-0.0389 0.48222,-0.13222 0.24889,-0.10111 0.46667,-0.25667 0.22555,-0.15556 0.37333,-0.38111 l 0,-5.20333 z"
         id="path4352"
         inkscape:connector-curvature="0" />
      <path
         d="m 467.38435,416.2203 q 0,-0.18667 -0.10111,-0.30334 -0.10111,-0.12444 -0.31889,-0.21 l -0.79333,-0.30333 0,-0.34222 2.62111,-0.49778 0,4.88445 q 0,0.52888 0.0545,0.95666 0.0544,0.42 0.23333,0.72334 0.17889,0.29555 0.51333,0.45111 0.33445,0.15555 0.88667,0.15555 0.24111,0 0.50556,-0.0389 0.26444,-0.0389 0.51333,-0.13222 0.25667,-0.0933 0.48222,-0.24111 0.23333,-0.15556 0.40445,-0.38111 l 0,-4.72111 q 0,-0.18667 -0.10112,-0.28778 -0.10111,-0.10111 -0.31888,-0.17889 l -0.80112,-0.30333 0,-0.35 2.62889,-0.53667 0,6.50222 q 0,0.19445 0.0933,0.31111 0.10111,0.11667 0.32666,0.19445 l 0.79334,0.28778 0,0.34222 -2.43445,0.53667 -0.10889,0 0,-1.35334 -0.0389,0 q -0.31888,0.44334 -0.63,0.70778 -0.31111,0.26444 -0.63,0.41222 -0.31888,0.14 -0.64555,0.18667 -0.31889,0.0467 -0.64556,0.0467 -0.52111,0 -0.98,-0.15556 -0.45889,-0.15556 -0.79333,-0.48222 -0.32667,-0.32667 -0.52111,-0.84 -0.19445,-0.52111 -0.19445,-1.25222 l 0,-3.78778 z"
         id="path4354"
         inkscape:connector-curvature="0" />
      <path
         d="m 477.68292,412.86808 q -0.20222,0 -0.38889,-0.07 -0.17889,-0.0778 -0.31889,-0.20223 -0.13222,-0.12444 -0.21777,-0.30333 -0.0778,-0.17889 -0.0778,-0.39667 0,-0.21 0.0778,-0.38889 0.0856,-0.17888 0.21777,-0.30333 0.14,-0.13222 0.31889,-0.20222 0.18667,-0.0778 0.38889,-0.0778 0.22556,0 0.41222,0.07 0.19445,0.07 0.33445,0.19445 0.14,0.12444 0.21778,0.30333 0.0778,0.17111 0.0778,0.38111 0,0.22556 -0.0856,0.40444 -0.0778,0.17889 -0.21778,0.31112 -0.14,0.13222 -0.33444,0.21 -0.18667,0.07 -0.40445,0.07 z m -1.92889,9.27888 0.99556,-0.24111 q 0.14778,-0.0389 0.24111,-0.14 0.10111,-0.10889 0.10111,-0.27222 l 0,-5.24222 q 0,-0.19445 -0.10889,-0.31111 -0.10111,-0.12445 -0.31889,-0.20222 l -0.87889,-0.30334 0,-0.35 2.70667,-0.49 0,6.89889 q 0,0.17111 0.0933,0.28 0.10112,0.10111 0.24112,0.13222 l 0.94888,0.24111 0,0.43556 -4.02111,0 0,-0.43556 z"
         id="path4356"
         inkscape:connector-curvature="0" />
      <path
         d="m 480.5439,422.14696 0.88666,-0.24111 q 0.14778,-0.0389 0.24112,-0.14 0.0933,-0.10889 0.0933,-0.27222 l 0,-5.27333 q 0,-0.18667 -0.10889,-0.30334 -0.10111,-0.12444 -0.31889,-0.21 l -0.79333,-0.30333 0,-0.34222 2.54333,-0.49778 0,1.29111 0.0389,0 q 0.31889,-0.42778 0.63,-0.69222 0.31889,-0.27222 0.63778,-0.41222 0.31889,-0.14778 0.63778,-0.19445 0.32666,-0.0544 0.65333,-0.0544 0.52111,0 0.98,0.15555 0.45889,0.15556 0.80111,0.49 0.34222,0.32667 0.53667,0.84778 0.19444,0.52111 0.19444,1.24445 l 0,4.21555 q 0,0.19445 0.10111,0.30334 0.10111,0.10888 0.23334,0.14777 l 0.78555,0.24111 0,0.43556 -3.67889,0 0,-0.43556 0.83222,-0.24111 q 0.14,-0.0467 0.23334,-0.14777 0.0933,-0.10889 0.0933,-0.30334 l 0,-3.65555 q 0,-0.53667 -0.0622,-0.95667 -0.0622,-0.42778 -0.24889,-0.72333 -0.18667,-0.30334 -0.52889,-0.45889 -0.33444,-0.16334 -0.88667,-0.16334 -0.24111,0 -0.50555,0.0467 -0.25667,0.0389 -0.51333,0.13222 -0.24889,0.0933 -0.48223,0.24889 -0.22555,0.15556 -0.40444,0.38111 l 0,5.18778 q 0,0.17111 0.0933,0.27222 0.10111,0.10111 0.24111,0.14 l 0.73889,0.24111 0,0.43556 -3.69444,0 0,-0.43556 z"
         id="path4358"
         inkscape:connector-curvature="0" />
      <path
         d="m 493.94088,422.78474 q -0.84778,0 -1.54,-0.28778 -0.69222,-0.28777 -1.18222,-0.82444 -0.49,-0.53667 -0.76223,-1.29889 -0.26444,-0.77 -0.26444,-1.71111 0,-0.87111 0.26444,-1.62556 0.26445,-0.76222 0.75445,-1.32222 0.49778,-0.56778 1.20555,-0.88666 0.70778,-0.32667 1.60223,-0.32667 0.96444,0 1.66444,0.34222 0.70778,0.34222 1.16667,0.91 0.45889,0.56778 0.68444,1.32222 0.23333,0.74667 0.23333,1.55556 0,0.86333 -0.26444,1.62555 -0.26444,0.75445 -0.75444,1.32223 -0.49,0.56 -1.19778,0.88666 -0.70778,0.31889 -1.61,0.31889 z m 0.10889,-0.64555 q 0.64555,0 1.06555,-0.31889 0.42,-0.31889 0.66111,-0.80889 0.24889,-0.49778 0.35,-1.08889 0.10111,-0.59111 0.10111,-1.13556 0,-0.66111 -0.12444,-1.31444 -0.12444,-0.65333 -0.40444,-1.16667 -0.27223,-0.52111 -0.71556,-0.84 -0.44333,-0.32666 -1.07333,-0.32666 -0.42778,0 -0.75445,0.14777 -0.31889,0.14778 -0.56,0.40445 -0.24111,0.24889 -0.40444,0.58333 -0.16334,0.32667 -0.26445,0.7 -0.10111,0.36556 -0.14777,0.75445 -0.0389,0.38889 -0.0389,0.74666 0,0.39667 0.0467,0.82445 0.0467,0.42778 0.15556,0.83222 0.10889,0.40444 0.28,0.77 0.17889,0.36556 0.43555,0.64556 0.25667,0.27222 0.59889,0.43555 0.35,0.15556 0.79334,0.15556 z"
         id="path4360"
         inkscape:connector-curvature="0" />
      <path
         d="m 510.98752,418.83363 q 0,-0.17111 -0.10111,-0.28 -0.0933,-0.11667 -0.23334,-0.14778 l -1.26,-0.28 0,-0.44333 4.37111,0 0,0.44333 -0.98777,0.28 q -0.13223,0.0389 -0.23334,0.14778 -0.10111,0.10889 -0.10111,0.28 l 0,1.22889 q 0,0.66889 0,1.16667 0,0.49777 0.0233,0.80111 -0.38889,0.15555 -0.87112,0.30333 -0.48222,0.14 -1.01111,0.24889 -0.52111,0.11667 -1.08111,0.17889 -0.55222,0.07 -1.09666,0.07 -1.04223,0 -1.96778,-0.37333 -0.92556,-0.38112 -1.62556,-1.10445 -0.69222,-0.73111 -1.10444,-1.78111 -0.40445,-1.05778 -0.40445,-2.40333 0,-1.28334 0.39667,-2.33334 0.40444,-1.05777 1.11222,-1.80444 0.71556,-0.74667 1.68,-1.15889 0.96445,-0.41222 2.1,-0.41222 0.68445,0 1.23667,0.0622 0.56,0.0544 1.01889,0.14 0.46666,0.0856 0.84,0.19444 0.37333,0.10112 0.69222,0.20223 l 0,2.62111 -0.61444,0 -0.40445,-1.47778 q -0.0389,-0.12444 -0.14,-0.19444 -0.0933,-0.0778 -0.20222,-0.13223 -0.25667,-0.14 -0.58333,-0.24889 -0.32667,-0.11666 -0.68445,-0.19444 -0.35778,-0.0856 -0.73889,-0.13222 -0.37333,-0.0467 -0.73889,-0.0467 -0.72333,0 -1.33777,0.28778 -0.60667,0.28778 -1.05,0.87111 -0.43556,0.57556 -0.68445,1.44667 -0.24889,0.87111 -0.24889,2.03 0,1.13555 0.24111,2.07666 0.24111,0.94111 0.70778,1.63334 0.46667,0.68444 1.14333,1.07333 0.67667,0.38111 1.54778,0.38111 0.38111,0 0.75445,-0.0622 0.37333,-0.07 0.69222,-0.16333 0.31889,-0.10112 0.56778,-0.20223 0.24889,-0.10111 0.38111,-0.17111 l 0,-2.62111 z"
         id="path4362"
         inkscape:connector-curvature="0" />
      <path
         d="m 514.63047,422.13141 1.07333,-0.32667 q 0.14,-0.0389 0.23333,-0.14778 0.10111,-0.11666 0.10111,-0.28 l 0,-8.50888 q 0,-0.17112 -0.10111,-0.28 -0.0933,-0.10889 -0.23333,-0.14778 l -1.13556,-0.30334 0,-0.44333 2.83889,0 5.24222,7.50556 0.67667,1.04222 0.0467,0 0,-7.35 q 0,-0.17111 -0.10111,-0.27222 -0.0933,-0.10889 -0.24111,-0.14778 l -1.06556,-0.33445 0,-0.44333 3.64,0 0,0.44333 -1.07333,0.33445 q -0.13223,0.0389 -0.24111,0.14778 -0.10112,0.10889 -0.10112,0.27222 l 0,7.93333 -0.23333,1.83556 -0.63,0 -5.68555,-8.12778 -0.73112,-1.12778 -0.0467,0 0,7.97222 q 0,0.17889 0.0933,0.28778 0.10111,0.10111 0.24111,0.14 l 1.06556,0.32667 0,0.45111 -3.63222,0 0,-0.45111 z"
         id="path4364"
         inkscape:connector-curvature="0" />
      <path
         d="m 526.55918,422.13141 1.07333,-0.27222 q 0.14,-0.0389 0.23333,-0.14778 0.10111,-0.11667 0.10111,-0.28778 l 0,-8.57889 q 0,-0.17111 -0.10111,-0.28 -0.0933,-0.10889 -0.23333,-0.14778 l -1.07333,-0.28 0,-0.44333 4.69777,0 q 0.53667,0 1.14334,0.10111 0.61444,0.10111 1.21333,0.35 0.60667,0.24889 1.15889,0.65334 0.56,0.40444 0.98,1.01888 0.42778,0.60667 0.68444,1.43889 0.25667,0.83223 0.25667,1.92889 0,1.39222 -0.43556,2.41111 -0.42777,1.01111 -1.17444,1.68 -0.73889,0.66111 -1.73444,0.98778 -0.99556,0.31889 -2.12334,0.31889 l -4.66666,0 0,-0.45111 z m 4.76777,-0.26445 q 0.94889,0 1.64111,-0.29555 0.7,-0.30333 1.15889,-0.87111 0.46667,-0.56778 0.68445,-1.39222 0.22555,-0.83223 0.22555,-1.89 0,-1.15889 -0.30333,-2.08445 -0.29556,-0.93333 -0.84778,-1.57889 -0.54444,-0.65333 -1.32222,-1.00333 -0.77,-0.35 -1.71111,-0.35 l -1.39222,0 0,9.46555 1.86666,0 z"
         id="path4366"
         inkscape:connector-curvature="0" />
    </g>
    <path
       style="opacity:1;fill:#999999;fill-opacity:1;stroke:#000000;stroke-width:1.56717622;stroke-linecap:round;stroke-miterlimit:4;stroke-dasharray:none;stroke-dashoffset:0;stroke-opacity:1"
       d="m 407.85373,733.55114 c 5.88897,0 10.62992,5.15241 10.62992,11.55248 l 0,161.07963 c 3.5433,15.16264 -4.74095,15.1913 -10.62992,15.1913 -5.88898,0 -14.17323,-0.0286 -10.62992,-15.1913 l 0,-161.07963 c 0,-6.40007 4.74094,-11.55248 10.62992,-11.55248 z"
       id="rect4284"
       inkscape:connector-curvature="0"
       sodipodi:nodetypes="sscscss" />
    <path
       style="opacity:1;fill:#999999;fill-opacity:1;stroke:#000000;stroke-width:1.41732287;stroke-linecap:round;stroke-miterlimit:4;stroke-dasharray:none;stroke-dashoffset:0;stroke-opacity:1"
       d="m 411.39703,988.66925 -7.08661,-7.08661 7.08661,-7.08661 -7.08661,-7.08662 14.17323,0 0,21.25984 -21.25985,0 0,-21.25984 7.08662,0"
       id="path4291"
       inkscape:connector-curvature="0"
       sodipodi:nodetypes="ccccccccc" />
    <text
       xml:space="preserve"
       style="font-style:normal;font-variant:normal;font-weight:normal;font-stretch:normal;font-size:17.5px;line-height:125%;font-family:'Sitka Heading';-inkscape-font-specification:'Sitka Heading, Normal';text-align:center;letter-spacing:0px;word-spacing:0px;writing-mode:lr-tb;text-anchor:middle;fill:#000000;fill-opacity:1;stroke:none;stroke-width:1px;stroke-linecap:butt;stroke-linejoin:miter;stroke-opacity:1"
       x="92.295799"
       y="993.94049"
       id="text4198"
       sodipodi:linespacing="125%"><tspan
         sodipodi:role="line"
         id="tspan4200"
         x="92.295799"
         y="993.94049">To 470 ohm resistor</tspan><tspan
         sodipodi:role="line"
         x="92.295799"
         y="1015.8156"
         id="tspan4202">&amp; Arduino pin 9</tspan></text>
  </g>
</svg>
